{"title":"Mayweather vs. Berto - Main Event Press Conference September 9th","uid":12392448,"size":302935711,"categoryP":"video","categoryS":"tv_shows","magnet":"?xt=urn:btih:f04f9f7c2973a7ffbd8332382efce4e0c7fe5733&amp;dn=Mayweather+vs.+Berto+-+Main+Event+Press+Conference+September+9th&amp;tr=udp%3A%2F%2Ftracker.openbittorrent.com%3A80&amp;tr=udp%3A%2F%2Fopen.demonii.com%3A1337&amp;tr=udp%3A%2F%2Ftracker.coppersurfer.tk%3A6969&amp;tr=udp%3A%2F%2Fexodus.desync.com%3A6969","seeders":1,"leechers":0,"uploader":"SS132203","files":2,"time":1441909946,"description":"Mayweather vs. Berto - Main Event Press Conference September 9th 2015 - 480p - WEBRip -={SPARROW}=-\n &lt;a href=&quot;\nhttp://imgsparrow.co/image/8Zd&quot; rel=&quot;nofollow&quot; target=&quot;_NEW&quot;&gt;\nhttp://imgsparrow.co/image/8Zd&lt;/a&gt;\n\nInfo : - \n\nFormat                      : MPEG-4\nFormat profile              : Base Media\nCodec ID                    : isom\nFile size                   : 289 MiB\nDuration                    : 49mn 41s\nOverall bit rate mode       : Variable\nOverall bit rate            : 813 Kbps\n\nVideo\nID                          : 1\nFormat                      : AVC\nFormat/Info                 : Advanced Video Codec\nFormat profile              : &lt;a class=&quot;__cf_email__&quot; href=&quot;/cdn-cgi/l/email-protection&quot; data-cfemail=&quot;ffb29e9691bfb3ccd1ce&quot;&gt;[email&amp;#160;protected]&lt;/a&gt;&lt;script data-cfhash='f9e31' type=&quot;text/javascript&quot;&gt;\n/* &lt;![CDATA[ */!function(){try{var t=&quot;currentScript&quot;in document?document.currentScript:function(){for(var t=document.getElementsByTagName(&quot;script&quot;),e=t.length;e--;)if(t[e].getAttribute(&quot;data-cfhash&quot;))return t[e]}();if(t&amp;&amp;t.previousSibling){var e,r,n,i,c=t.previousSibling,a=c.getAttribute(&quot;data-cfemail&quot;);if(a){for(e=&quot;&quot;,r=parseInt(a.substr(0,2),16),n=2;a.length-n;n+=2)i=parseInt(a.substr(n,2),16)^r,e+=String.fromCharCode(i);e=document.createTextNode(e),c.parentNode.replaceChild(e,c)}t.parentNode.removeChild(t);}}catch(u){}}()/* ]]&gt; */&lt;/script&gt;\nFormat settings, CABAC      : Yes\nFormat settings, ReFrames   : 3 frames\nCodec ID                    : avc1\nCodec ID/Info               : Advanced Video Coding\nDuration                    : 49mn 41s\nBit rate                    : 683 Kbps\nWidth                       : 854 pixels\nHeight                      : 480 pixels\nDisplay aspect ratio        : 16:9\nFrame rate mode             : Constant\nFrame rate                  : 30.000 fps\nColor space                 : YUV\nChroma subsampling          : 4:2:0\nBit depth                   : 8 bits\nScan type                   : Progressive\nBits/(Pixel*Frame)          : 0.056\nStream size                 : 243 MiB (84%)\nEncoded date                : UTC 2015-09-10 00:20:58\nTagged date                 : UTC 2015-09-10 00:20:58\n\nAudio\nID                          : 2\nFormat                      : AAC\nFormat/Info                 : Advanced Audio Codec\nFormat profile              : LC\nCodec ID                    : 40\nDuration                    : 49mn 41s\nBit rate mode               : Variable\nBit rate                    : 126 Kbps\nChannel(s)                  : 2 channels\nChannel positions           : Front: L R\nSampling rate               : 44.1 KHz\nCompression mode            : Lossy\nStream size                 : 44.6 MiB (15%)\n\nScreens : - \n &lt;a href=&quot;\nhttp://imgsparrow.co/image/8Zo&quot; rel=&quot;nofollow&quot; target=&quot;_NEW&quot;&gt;\nhttp://imgsparrow.co/image/8Zo&lt;/a&gt;\n &lt;a href=&quot;\nhttp://imgsparrow.co/image/8nG&quot; rel=&quot;nofollow&quot; target=&quot;_NEW&quot;&gt;\nhttp://imgsparrow.co/image/8nG&lt;/a&gt;","torrent":{"xt":"urn:btih:f04f9f7c2973a7ffbd8332382efce4e0c7fe5733","amp;dn":"Mayweather+vs.+Berto+-+Main+Event+Press+Conference+September+9th","amp;tr":["udp%3A%2F%2Ftracker.openbittorrent.com%3A80","udp%3A%2F%2Fopen.demonii.com%3A1337","udp%3A%2F%2Ftracker.coppersurfer.tk%3A6969","udp%3A%2F%2Fexodus.desync.com%3A6969"],"infoHash":"f04f9f7c2973a7ffbd8332382efce4e0c7fe5733","infoHashBuffer":{"type":"Buffer","data":[240,79,159,124,41,115,167,255,189,131,50,56,46,252,228,224,199,254,87,51]},"announce":[],"urlList":[]}}